<svg viewBox="0 0 30 30">
	<g id="Desktop-HD" transform="translate(-556.000000, -677.000000)" fill-rule="nonzero" fill="#888888">
		<g id="social" transform="translate(250.000000, 677.000000)">
			<path fill="currentColor" fill-rule="evenodd" clip-rule="evenodd" d="M335.979,10.205 C335.972,10.169 335.965,10.133 335.957,10.098 C335.951,10.077 335.943,10.056 335.936,10.035 C335.926,10.004 335.915,9.972 335.903,9.941 C335.894,9.92 335.884,9.899 335.875,9.878 C335.861,9.849 335.847,9.82 335.83,9.792 C335.819,9.771 335.807,9.752 335.794,9.732 C335.776,9.706 335.759,9.679 335.739,9.654 C335.725,9.634 335.711,9.617 335.695,9.598 C335.674,9.574 335.653,9.551 335.631,9.528 C335.614,9.511 335.598,9.494 335.58,9.478 C335.557,9.457 335.532,9.436 335.507,9.416 C335.487,9.401 335.469,9.386 335.448,9.372 C335.441,9.367 335.434,9.361 335.427,9.355 L321.715,0.216 C321.282,-0.072 320.718,-0.072 320.285,0.216 L306.574,9.356 C306.566,9.362 306.56,9.368 306.553,9.373 C306.533,9.387 306.514,9.402 306.494,9.417 C306.47,9.437 306.445,9.457 306.421,9.479 C306.404,9.494 306.387,9.512 306.37,9.528 C306.348,9.551 306.326,9.574 306.306,9.598 C306.291,9.617 306.276,9.634 306.262,9.654 C306.242,9.68 306.225,9.706 306.207,9.732 C306.194,9.752 306.182,9.771 306.17,9.792 C306.154,9.82 306.14,9.849 306.126,9.878 C306.116,9.899 306.106,9.919 306.097,9.941 C306.085,9.972 306.074,10.004 306.064,10.035 C306.057,10.056 306.05,10.077 306.044,10.098 C306.035,10.133 306.028,10.169 306.022,10.205 C306.019,10.224 306.014,10.242 306.011,10.261 C306.004,10.316 306,10.373 306,10.43 L306,19.571 C306,19.628 306.004,19.683 306.011,19.739 C306.014,19.759 306.018,19.776 306.022,19.795 C306.028,19.831 306.035,19.867 306.044,19.903 C306.05,19.924 306.057,19.945 306.064,19.966 C306.074,19.997 306.085,20.029 306.097,20.061 C306.106,20.082 306.116,20.102 306.126,20.123 C306.14,20.152 306.154,20.181 306.17,20.21 C306.181,20.23 306.194,20.249 306.207,20.269 C306.225,20.296 306.242,20.322 306.262,20.348 C306.276,20.367 306.291,20.385 306.306,20.403 C306.327,20.427 306.348,20.451 306.37,20.473 C306.387,20.49 306.404,20.507 306.421,20.523 C306.444,20.544 306.469,20.565 306.494,20.585 C306.514,20.601 306.533,20.615 306.553,20.63 C306.56,20.635 306.567,20.641 306.574,20.646 L320.285,29.787 C320.502,29.928 320.751,30 321,30 C321.249,30 321.499,29.928 321.715,29.783 L335.426,20.642 C335.434,20.637 335.441,20.631 335.447,20.626 C335.468,20.611 335.486,20.597 335.506,20.581 C335.531,20.561 335.556,20.541 335.579,20.519 C335.597,20.503 335.613,20.486 335.63,20.469 C335.652,20.447 335.674,20.423 335.694,20.399 C335.71,20.381 335.724,20.363 335.738,20.344 C335.758,20.318 335.775,20.292 335.793,20.265 C335.806,20.245 335.818,20.226 335.829,20.206 C335.846,20.177 335.86,20.148 335.874,20.119 C335.884,20.098 335.894,20.078 335.902,20.057 C335.915,20.026 335.925,19.994 335.935,19.962 C335.942,19.941 335.95,19.921 335.956,19.899 C335.965,19.863 335.972,19.827 335.978,19.791 C335.981,19.772 335.986,19.755 335.988,19.735 C335.996,19.683 336,19.627 336,19.57 L336,10.43 C336,10.373 335.996,10.317 335.988,10.261 C335.986,10.242 335.981,10.224 335.979,10.205 Z M321,18.05 L316.441,15 L321,11.95 L325.56,15 L321,18.05 Z M319.711,9.711 L314.122,13.449 L309.61,10.432 L319.711,3.698 L319.711,9.711 Z M311.803,15 L308.578,17.157 L308.578,12.843 L311.803,15 Z M314.122,16.551 L319.711,20.289 L319.711,26.302 L309.61,19.568 L314.122,16.551 Z M322.289,20.289 L327.878,16.551 L332.39,19.569 L322.289,26.302 L322.289,20.289 Z M330.196,15 L333.422,12.843 L333.422,17.157 L330.196,15 Z M327.878,13.449 L322.289,9.711 L322.289,3.697 L332.39,10.431 L327.878,13.449 Z"/>
		</g>
	</g>
</svg>
