<svg viewBox="0 0 30 30">
	<path fill="currentColor" fill-rule="evenodd" clip-rule="evenodd" d="M3,0 C1.338,0 -6.0111828e-18,1.338 0,3 L0,27 C0,28.662 1.338,30 3,30 L13.51125,30 L13.51125,16.561875 L10.854375,16.561875 L10.854375,11.810625 L13.51125,11.810625 L13.51125,8.7375 C13.51125,6.5369142 14.5573686,3.099375 19.15125,3.099375 L23.289375,3.114375 L23.289375,7.725 L20.28375,7.725 C19.7941752,7.725 19.09875,7.969977 19.09875,9.01875 L19.09875,11.810625 L23.356875,11.810625 L22.869375,16.561875 L19.09875,16.561875 L19.09875,30 L27,30 C28.662,30 30,28.662 30,27 L30,3 C30,1.338 28.662,-6.0111828e-18 27,0 L3,0 Z"/>
</svg>
