<?xml version="1.0" encoding="UTF-8"?>
<svg width="30px" height="30px" viewBox="0 0 30 30" version="1.1" xmlns="http://www.w3.org/2000/svg" xmlns:xlink="http://www.w3.org/1999/xlink">
	<!-- Generator: Sketch 46.2 (44496) - http://www.bohemiancoding.com/sketch -->
	<title>github</title>
	<desc>Created with Sketch.</desc>
	<defs></defs>
	<g id="Welcome" stroke="none" stroke-width="1" fill="none" fill-rule="evenodd">
		<g id="Desktop-HD" transform="translate(-495.000000, -677.000000)" fill-rule="nonzero" fill="#888888">
			<g id="social" transform="translate(250.000000, 677.000000)">
				<path fill="currentColor" fill-rule="evenodd" clip-rule="evenodd" d="M260.000793,0 C251.716873,0 245,6.88429233 245,15.3825092 C245,22.1797434 249.299334,27.9389763 255.259471,29.9747981 C256.00951,30.1154306 256.284078,29.639959 256.284078,29.2314553 C256.284078,28.8631323 256.270685,27.8987956 256.263988,26.6130134 C252.091893,27.5438661 251.207917,24.5504044 251.207917,24.5504044 C250.524846,22.775757 249.540418,22.3002855 249.540418,22.3002855 C248.180972,21.3426456 249.64087,21.3627359 249.64087,21.3627359 C251.147646,21.4698845 251.937867,22.9498734 251.937867,22.9498734 C253.277223,25.300444 255.446981,24.624069 256.304169,24.2289588 C256.438104,23.237835 256.826518,22.5547632 257.255112,22.1730466 C253.926811,21.7846332 250.424394,20.4653671 250.424394,14.5721986 C250.424394,12.8913062 251.007014,11.5184658 251.964654,10.4469806 C251.810628,10.0585672 251.294975,8.49152012 252.111983,6.37533687 C252.111983,6.37533687 253.370978,5.96013636 256.237201,7.94908074 C257.435925,7.60754484 258.71501,7.44012528 259.994096,7.43342849 C261.266485,7.44012528 262.552267,7.60754484 263.750991,7.94908074 C266.617214,5.96013636 267.869512,6.37533687 267.869512,6.37533687 C268.686519,8.49152012 268.170867,10.0585672 268.016841,10.4469806 C268.974481,11.5251626 269.557101,12.898003 269.557101,14.5721986 C269.557101,20.4787607 266.047987,21.7779365 262.706293,22.159653 C263.242035,22.6351246 263.724204,23.5726741 263.724204,25.0057856 C263.724204,27.0616978 263.704113,28.7224998 263.704113,29.2247585 C263.704113,29.6332622 263.971985,30.1154306 264.735418,29.9614046 C270.708948,27.9322795 275.001585,22.1730466 275.001585,15.3825092 C275.001585,6.88429233 268.284712,0 260.000793,0 Z" id="github"></path>
			</g>
		</g>
	</g>
</svg>
