<?xml version="1.0" encoding="UTF-8"?>
<svg width="30px" height="30px" viewBox="0 0 30 30" version="1.1" xmlns="http://www.w3.org/2000/svg" xmlns:xlink="http://www.w3.org/1999/xlink">
	<!-- Generator: Sketch 46.2 (44496) - http://www.bohemiancoding.com/sketch -->
	<title>instagram</title>
	<desc>Created with Sketch.</desc>
	<defs></defs>
	<g id="Welcome" stroke="none" stroke-width="1" fill="none" fill-rule="evenodd">
		<g id="Desktop-HD" transform="translate(-310.000000, -677.000000)" fill="#888888">
			<g id="social" transform="translate(250.000000, 677.000000)">
				<path fill="currentColor" fill-rule="evenodd" clip-rule="evenodd" d="M74.9999343,0 C70.9261857,0 70.4153809,0.0171605155 68.815508,0.0902735163 C67.2188568,0.16318927 66.1284737,0.416717805 65.1744543,0.787476988 C64.1880205,1.17079425 63.3514947,1.68370299 62.5175988,2.51759884 C61.683703,3.3514947 61.1707942,4.18808626 60.7875427,5.17445428 C60.4165863,6.12860524 60.1630578,7.21898834 60.0902735,8.81557377 C60.0172263,10.4154467 60,10.9261857 60,14.9999343 C60,19.0738143 60.0172263,19.5845533 60.0902735,21.1844262 C60.1630578,22.7810117 60.4165863,23.8713948 60.7875427,24.8255457 C61.1707942,25.8119137 61.683703,26.6485053 62.5175988,27.4824012 C63.3514947,28.316297 64.1880205,28.8292058 65.1744543,29.212523 C66.1284737,29.5832822 67.2188568,29.8368107 68.815508,29.9097265 C70.4153809,29.982708 70.9261857,30 74.9999343,30 C79.0736828,30 79.5845533,29.982708 81.1844262,29.9097265 C82.7810117,29.8368107 83.8713948,29.5832822 84.82548,29.212523 C85.8119137,28.8292058 86.6483738,28.316297 87.4822697,27.4824012 C88.3161655,26.6485053 88.8290743,25.8119137 89.2123915,24.8255457 C89.5832822,23.8713948 89.8368107,22.7810117 89.9096607,21.1844262 C89.982708,19.5845533 89.9998685,19.0738143 89.9998685,14.9999343 C89.9998685,10.9261857 89.982708,10.4154467 89.9096607,8.81557377 C89.8368107,7.21898834 89.5832822,6.12860524 89.2123915,5.17445428 C88.8290743,4.18808626 88.3161655,3.3514947 87.4822697,2.51759884 C86.6483738,1.68370299 85.8119137,1.17079425 84.82548,0.787476988 C83.8713948,0.416717805 82.7810117,0.16318927 81.1844262,0.0902735163 C79.5845533,0.0171605155 79.0736828,0 74.9999343,0 M74.9999343,2.70268256 C79.0051065,2.70268256 79.4794205,2.71793635 81.0612124,2.79006312 C82.5236697,2.85679846 83.3179188,3.10125362 83.8464758,3.30658806 C84.5467038,3.57872359 85.0463969,3.90378715 85.5712063,4.42866222 C86.0962129,4.95360305 86.4212764,5.45323047 86.6932804,6.15339265 C86.8986149,6.68194968 87.14307,7.47626457 87.2098054,8.93865609 C87.2819321,10.520448 87.2972517,10.994762 87.2972517,14.9999343 C87.2972517,19.005238 87.2819321,19.479552 87.2098054,21.0612124 C87.14307,22.5237354 86.8986149,23.3180503 86.6932804,23.8466073 C86.4212764,24.5467038 86.0962129,25.0463969 85.5712063,25.5713378 C85.0463969,26.0962129 84.5467038,26.4212764 83.8464758,26.6933462 C83.3179188,26.8987464 82.5236697,27.1432015 81.0612124,27.2098054 C79.4796835,27.2820636 79.0054353,27.2972517 74.9999343,27.2972517 C70.9944332,27.2972517 70.520185,27.2820636 68.9386561,27.2098054 C67.4762646,27.1432015 66.6819497,26.8987464 66.1533927,26.6933462 C65.4532305,26.4212764 64.9535373,26.0962129 64.4286622,25.5713378 C63.9038529,25.0463969 63.5787893,24.5467038 63.3066538,23.8466073 C63.1012536,23.3180503 62.8568642,22.5237354 62.7900631,21.0612124 C62.7180021,19.479552 62.7026826,19.005238 62.7026826,14.9999343 C62.7026826,10.994762 62.7180021,10.520448 62.7900631,8.93865609 C62.8568642,7.47626457 63.1012536,6.68194968 63.3066538,6.15339265 C63.5787893,5.45323047 63.9038529,4.95360305 64.4286622,4.42866222 C64.9535373,3.90378715 65.4532305,3.57872359 66.1533927,3.30658806 C66.6819497,3.10125362 67.4762646,2.85679846 68.9386561,2.79006312 C70.520448,2.71793635 70.994762,2.70268256 74.9999343,2.70268256 Z M74.9999343,19.9999562 C77.7613965,19.9999562 79.9999562,17.7613965 79.9999562,14.9999343 C79.9999562,12.2385377 77.7613965,9.99997808 74.9999343,9.99997808 C72.2385377,9.99997808 69.9999123,12.2385377 69.9999123,14.9999343 C69.9999123,17.7613965 72.2385377,19.9999562 74.9999343,19.9999562 Z M74.9999343,7.29729552 C79.2539669,7.29729552 82.702573,10.7459674 82.702573,14.9999343 C82.702573,19.2540984 79.2539669,22.7026387 74.9999343,22.7026387 C70.7459016,22.7026387 67.2972955,19.2540984 67.2972955,14.9999343 C67.2972955,10.7459674 70.7459016,7.29729552 74.9999343,7.29729552 Z M84.206965,6.69292978 C84.206965,7.52130762 83.5354006,8.19292978 82.7069716,8.19292978 C81.8785974,8.19292978 81.2069782,7.52130762 81.2069782,6.69292978 C81.2069782,5.86449715 81.8785974,5.19292978 82.7069716,5.19292978 C83.5354006,5.19292978 84.206965,5.86449715 84.206965,6.69292978 Z" id="instagram"></path>
			</g>
		</g>
	</g>
</svg>
