<?xml version="1.0" encoding="UTF-8"?>
<svg width="30px" height="30px" viewBox="0 0 30 30" version="1.1" xmlns="http://www.w3.org/2000/svg" xmlns:xlink="http://www.w3.org/1999/xlink">
	<!-- Generator: Sketch 46.2 (44496) - http://www.bohemiancoding.com/sketch -->
	<title>linkedin</title>
	<desc>Created with Sketch.</desc>
	<defs></defs>
	<g id="Welcome" stroke="none" stroke-width="1" fill="none" fill-rule="evenodd">
		<g id="Desktop-HD" transform="translate(-435.000000, -677.000000)" fill-rule="nonzero" fill="#888888">
			<g id="social" transform="translate(250.000000, 677.000000)">
				<path fill="currentColor" fill-rule="evenodd" clip-rule="evenodd" d="M213.777726,0 L186.222212,0 C185.549996,0 185,0.54999562 185,1.22221249 L185,28.7777875 C185,29.4500044 185.549996,30 186.222212,30 L213.777726,30 C214.449943,30 214.999939,29.4500044 214.999939,28.7777875 L214.999939,1.22221249 C214.999939,0.54999562 214.449943,0 213.777726,0 Z M194.663851,24.4766384 L190.499895,24.4766384 L190.499895,11.0533842 L194.66379,11.0533842 L194.66379,24.4766384 L194.663851,24.4766384 Z M192.615545,9.56723493 C191.300628,9.56723493 190.451434,8.6358479 190.451434,7.48525706 C190.451434,6.30734977 191.328005,5.40334031 192.670361,5.40334031 C194.012717,5.40334031 194.834533,6.30734977 194.86191,7.48525706 C194.86191,8.63578679 194.012656,9.56723493 192.615545,9.56723493 Z M210.105345,24.4781662 L205.94145,24.4781662 L205.94145,17.3050011 C205.94145,15.5791759 205.338777,14.4012075 203.832094,14.4012075 C202.681504,14.4012075 201.996698,15.1956457 201.6953,15.9626451 C201.585729,16.236604 201.558351,16.6201343 201.558351,17.0036035 L201.558351,24.4760884 L197.394457,24.4760884 L197.394457,15.6064924 C197.394457,13.9354224 197.339702,12.2587302 197.284886,11.0533842 L200.900923,11.0533842 L201.398242,13.1958616 L201.541546,13.1958616 C202.089403,12.3192297 203.065095,11.0316899 205.311338,11.0316899 C208.050744,11.0316899 210.105283,12.8670864 210.105283,16.8118384 L210.105283,24.4781662 L210.105345,24.4781662 Z" id="linkedin"></path>
			</g>
		</g>
	</g>
</svg>
