<?xml version="1.0" encoding="UTF-8"?>
<svg width="37px" height="30px" viewBox="0 0 37 30" version="1.1" xmlns="http://www.w3.org/2000/svg" xmlns:xlink="http://www.w3.org/1999/xlink">
	<!-- Generator: Sketch 46.2 (44496) - http://www.bohemiancoding.com/sketch -->
	<title>twitter</title>
	<desc>Created with Sketch.</desc>
	<defs></defs>
	<g id="Welcome" stroke="none" stroke-width="1" fill="none" fill-rule="evenodd">
		<g id="Desktop-HD" transform="translate(-370.000000, -677.000000)" fill-rule="nonzero" fill="#888888">
			<g id="social" transform="translate(250.000000, 677.000000)">
				<path fill="currentColor" fill-rule="evenodd" clip-rule="evenodd" d="M156.915872,3.55123145 C155.558775,4.1544687 154.098266,4.56137283 152.565819,4.74346805 C154.130489,3.80676425 155.330219,2.32302543 155.895988,0.553029925 C154.432482,1.42154169 152.812359,2.05175601 151.086576,2.39196683 C149.7055,0.920217815 147.736924,0 145.558525,0 C141.37633,0 137.985462,3.39086776 137.985462,7.57381226 C137.985462,8.16655843 138.052156,8.74431733 138.181795,9.29959534 C131.887146,8.98336414 126.30589,5.96867662 122.570315,1.38632163 C121.918369,2.50437128 121.545187,3.80526552 121.545187,5.1945846 C121.545187,7.82185143 122.88205,10.1403807 124.914323,11.4982265 C123.673378,11.4585103 122.505121,11.1175501 121.483739,10.5502823 C121.482989,10.5817555 121.482989,10.6139781 121.482989,10.6462007 C121.482989,14.3150822 124.09377,17.3754808 127.558825,18.0723885 C126.923365,18.244742 126.254184,18.337663 125.563271,18.337663 C125.074687,18.337663 124.60034,18.2904531 124.137983,18.2012789 C125.102413,21.2099715 127.899036,23.4003597 131.212719,23.4610581 C128.620672,25.4925813 125.355698,26.703552 121.806714,26.703552 C121.195983,26.703552 120.592746,26.6675826 120,26.5971424 C123.35265,28.747065 127.333267,30 131.609882,30 C145.54129,30 153.158565,18.4598092 153.158565,8.45131638 C153.158565,8.12309537 153.151821,7.79562372 153.137583,7.47040016 C154.616826,6.40480591 155.901234,5.07019034 156.915872,3.55123145 Z" id="twitter"></path>
			</g>
		</g>
	</g>
</svg>
