<?xml version="1.0" encoding="UTF-8"?>
<svg width="40px" height="30px" viewBox="0 0 40 30" version="1.1" xmlns="http://www.w3.org/2000/svg" xmlns:xlink="http://www.w3.org/1999/xlink">
	<!-- Generator: Sketch 46.2 (44496) - http://www.bohemiancoding.com/sketch -->
	<title>youtube</title>
	<desc>Created with Sketch.</desc>
	<defs></defs>
	<g id="Welcome" stroke="none" stroke-width="1" fill="none" fill-rule="evenodd">
		<g id="Desktop-HD" transform="translate(-616.000000, -677.000000)" fill-rule="nonzero" fill="#888888">
			<g id="social" transform="translate(250.000000, 677.000000)">
				<path fill="currentColor" fill-rule="evenodd" clip-rule="evenodd" d="M405.732653,6.62463157 C405.732653,3.10920208 403.146859,0.281234359 399.951724,0.281234359 C395.62384,0.0781206553 391.210023,0 386.702461,0 C386.468099,0 386.233737,0 385.999375,0 C385.765013,0 385.530652,0 385.29629,0 C380.79654,0 376.374911,0.0781206553 372.047026,0.281234359 C368.859704,0.281234359 366.27391,3.12482621 366.27391,6.6402557 C366.078608,9.42135103 365.992676,12.2024464 366.000488,14.9835417 C365.992676,17.764637 366.078608,20.5457323 366.266098,23.3346397 C366.266098,26.8500692 368.851892,29.7014731 372.039214,29.7014731 C376.585836,29.9123989 381.24964,30.0061437 385.991563,29.9983316 C390.741299,30.0139558 395.389478,29.920211 399.943912,29.7014731 C403.139047,29.7014731 405.724841,26.8500692 405.724841,23.3346397 C405.91233,20.5457323 405.998263,17.764637 405.990451,14.9757296 C406.006075,12.1946343 405.920143,9.41353896 405.732653,6.62463157 Z M382.171463,22.647178 L382.171463,7.29646921 L393.498958,14.9679176 L382.171463,22.647178 Z" id="youtube"></path>
			</g>
		</g>
	</g>
</svg>
