<?xml version="1.0" encoding="UTF-8" standalone="no"?>
<svg width="100px" height="100px" viewBox="0 0 100 100" version="1.1" xmlns="http://www.w3.org/2000/svg" xmlns:xlink="http://www.w3.org/1999/xlink" xmlns:sketch="http://www.bohemiancoding.com/sketch/ns">
	<!-- Generator: Sketch 3.1 (8751) - http://www.bohemiancoding.com/sketch -->
	<title>mantis-grid</title>
	<desc>Created with Sketch.</desc>
	<defs></defs>
	<g id="Page-1" stroke="none" stroke-width="1" fill="none" fill-rule="evenodd" sketch:type="MSPage">
		<g id="mantis-grid" sketch:type="MSLayerGroup">
			<circle id="Oval-1" fill="#16a085" sketch:type="MSShapeGroup" cx="50" cy="50" r="50"></circle>
			<g id="mac" transform="translate(19.000000, 23.000000)" sketch:type="MSShapeGroup">
				<path d="M0,42.667 L0,1.25 C0,0.562 0.588,0 1.306,0 L62.694,0 C63.412,0 64,0.562 64,1.25 L64,42.667 L0,42.667 L0,42.667 Z" id="Shape" fill="#000000"></path>
				<path d="M64,42.667 L64,48 C64,48.733 63.412,49.333 62.694,49.333 L1.306,49.333 C0.588,49.333 0,48.733 0,48 L0,42.667 L64,42.667 L64,42.667 Z" id="Shape" fill="#E2E2E2"></path>
				<g id="Group" transform="translate(18.000000, 49.000000)">
					<path d="M4.667,9.667 L23.333,9.667 L22,0.333 L6,0.333 L4.667,9.667 L4.667,9.667 Z" id="Shape" fill="#C9C9C9"></path>
					<path d="M22,0.333 L6,0.333 L5.169,6.15 L22.311,2.508 L22,0.333 L22,0.333 Z" id="Shape" fill="#AAAAAA"></path>
					<rect id="Rectangle-path" fill="#E2E2E2" x="0" y="9" width="28" height="1.333"></rect>
				</g>
				<path d="M24,49.333 L40,49.333 L40.09,49.963 L23.585,52.242 L24,49.333 L24,49.333 Z" id="Shape" fill="#939393"></path>
				<rect id="Rectangle-path" fill="#FFFFFF" x="2" y="2" width="59.535" height="38"></rect>
			</g>
			<g id="articles" transform="translate(35.000000, 51.000000)" fill="#000000" sketch:type="MSShapeGroup">
				<rect id="Rectangle-path" x="16" y="2" width="15" height="9"></rect>
				<rect id="Rectangle-path" x="0" y="2" width="15" height="9"></rect>
				<rect id="Rectangle-path-3" x="16" y="0" width="15" height="1"></rect>
				<rect id="Rectangle-path-4" x="0" y="0" width="15" height="1"></rect>
			</g>
			<g id="featured" transform="translate(31.000000, 30.000000)" fill="#000000" sketch:type="MSShapeGroup">
				<rect id="Rectangle-15" x="8" y="16" width="23" height="3"></rect>
				<rect id="Rectangle-path" x="0" y="0" width="39" height="14"></rect>
			</g>
			<g id="header" transform="translate(31.000000, 26.000000)" fill="#000000" sketch:type="MSShapeGroup">
				<rect id="Rectangle-path" x="32" y="0" width="7" height="2"></rect>
				<rect id="Rectangle-path-2" x="24" y="0" width="7" height="2"></rect>
				<rect id="Rectangle-path-3" x="16" y="0" width="7" height="2"></rect>
				<rect id="Rectangle-path" x="0" y="0" width="11" height="2"></rect>
			</g>
			<g id="grid" transform="translate(31.000000, 25.000000)" fill="#BDF2D2" sketch:type="MSShapeGroup" fill-opacity="0.346495697">
				<rect id="Rectangle-15" x="0" y="0" width="3" height="38"></rect>
				<rect id="Rectangle-16" x="4" y="0" width="3" height="38"></rect>
				<rect id="Rectangle-17" x="8" y="0" width="3" height="38"></rect>
				<rect id="Rectangle-18" x="12" y="0" width="3" height="38"></rect>
				<rect id="Rectangle-19" x="16" y="0" width="3" height="38"></rect>
				<rect id="Rectangle-20" x="20" y="0" width="3" height="38"></rect>
				<rect id="Rectangle-21" x="24" y="0" width="3" height="38"></rect>
				<rect id="Rectangle-22" x="28" y="0" width="3" height="38"></rect>
				<rect id="Rectangle-23" x="32" y="0" width="3" height="38"></rect>
				<rect id="Rectangle-24" x="36" y="0" width="3" height="38"></rect>
			</g>
		</g>
	</g>
</svg>
