<svg width="100" height="100" viewBox="0 0 100 100" xmlns="http://www.w3.org/2000/svg"><title>mantis-grid</title><g fill="none" fill-rule="evenodd"><circle fill="#16a085" cx="50" cy="50" r="50"/><path d="M19 65.667V24.25c0-.688.588-1.25 1.306-1.25h61.388c.718 0 1.306.562 1.306 1.25v41.417H19z" fill="#000"/><path d="M83 65.667V71c0 .733-.588 1.333-1.306 1.333H20.306c-.718 0-1.306-.6-1.306-1.333v-5.333h64z" fill="#E2E2E2"/><path d="M41.667 81.667h18.666L59 72.333H43l-1.333 9.334z" fill="#C9C9C9"/><path d="M59 72.333H43l-.831 5.817 17.142-3.642L59 72.333z" fill="#AAA"/><path fill="#E2E2E2" d="M37 81h28v1.333H37z"/><path d="M43 72.333h16l.09.63-16.505 2.279.415-2.909z" fill="#939393"/><path fill="#FFF" d="M21 25h59.535v38H21z"/><path d="M51 53h15v9H51zm-16 0h15v9H35zm16-2h15v1H51zm-16 0h15v1H35zm4-5h23v3H39zm-8-16h39v14H31zm32-4h7v2h-7zm-8 0h7v2h-7zm-8 0h7v2h-7zm-16 0h11v2H31z" fill="#000"/><path d="M31 25h3v38h-3zm4 0h3v38h-3zm4 0h3v38h-3zm4 0h3v38h-3zm4 0h3v38h-3zm4 0h3v38h-3zm4 0h3v38h-3zm4 0h3v38h-3zm4 0h3v38h-3zm4 0h3v38h-3z" fill="#BDF2D2" fill-opacity=".346"/></g></svg>